<?xml version="1.0" encoding="UTF-8"?>
<!DOCTYPE svg PUBLIC "-//W3C//DTD SVG 1.1//EN" "http://www.w3.org/Graphics/SVG/1.1/DTD/svg11.dtd">
<svg xmlns="http://www.w3.org/2000/svg" version="1.1" width="608px" height="160px" style="shape-rendering:geometricPrecision; text-rendering:geometricPrecision; image-rendering:optimizeQuality; fill-rule:evenodd; clip-rule:evenodd" xmlns:xlink="http://www.w3.org/1999/xlink">
<g><path style="opacity:1" fill="#8a281d" d="M 332.5,-0.5 C 339.833,-0.5 347.167,-0.5 354.5,-0.5C 359.22,0.210488 363.887,1.21049 368.5,2.5C 357.154,1.6321 345.821,1.6321 334.5,2.5C 333.167,3.16667 331.833,3.83333 330.5,4.5C 332.435,5.21297 332.768,6.21297 331.5,7.5C 327.582,8.44157 323.582,9.10823 319.5,9.5C 316.274,8.22772 313.107,7.56106 310,7.5C 309.308,8.02527 308.808,8.69194 308.5,9.5C 304.959,10.2 301.459,10.8666 298,11.5C 296.984,10.3659 296.317,10.6992 296,12.5C 295.161,11.3759 293.994,10.7092 292.5,10.5C 288.706,12.1152 284.706,13.1152 280.5,13.5C 287.085,10.1937 294.085,7.86039 301.5,6.5C 304.152,6.59047 306.485,5.92381 308.5,4.5C 316.378,2.18748 324.378,0.520809 332.5,-0.5 Z"/></g>
<g><path style="opacity:1" fill="#994b45" d="M 308.5,4.5 C 306.485,5.92381 304.152,6.59047 301.5,6.5C 303.515,5.07619 305.848,4.40953 308.5,4.5 Z"/></g>
<g><path style="opacity:1" fill="#a85952" d="M 374.5,3.5 C 376.589,3.85665 378.589,4.52332 380.5,5.5C 378.09,7.37164 375.423,8.70497 372.5,9.5C 372.389,8.88258 372.056,8.38258 371.5,8C 372.793,7.50999 374.127,7.34332 375.5,7.5C 375.567,6.04125 375.234,4.70792 374.5,3.5 Z"/></g>
<g><path style="opacity:1" fill="#e73b27" d="M 310.5,66.5 C 304.531,71.1345 298.864,76.1345 293.5,81.5C 296.106,82.6517 298.773,82.8184 301.5,82C 305.33,80.298 308.996,78.4646 312.5,76.5C 312.5,76.8333 312.5,77.1667 312.5,77.5C 312.425,80.2062 312.092,82.8728 311.5,85.5C 308.957,86.3568 306.623,87.6901 304.5,89.5C 302.895,88.5697 301.395,88.5697 300,89.5C 297.572,87.2779 295.739,85.2779 294.5,83.5C 293.833,83.6667 293.167,83.8333 292.5,84C 293.517,85.0495 293.684,86.2161 293,87.5C 292.333,86.1667 291.667,84.8333 291,83.5C 289.061,85.2358 286.728,86.2358 284,86.5C 281.922,85.4799 280.255,86.1466 279,88.5C 277.09,87.7935 275.09,86.7935 273,85.5C 271.989,86.3366 270.822,86.67 269.5,86.5C 269.649,85.448 269.483,84.448 269,83.5C 266.455,83.7429 263.955,83.7429 261.5,83.5C 259.568,84.1455 258.401,85.4788 258,87.5C 257.323,85.311 256.156,84.9776 254.5,86.5C 253.749,85.624 253.249,84.624 253,83.5C 251.667,83.5 250.333,83.5 249,83.5C 247.17,85.7572 244.837,85.7572 242,83.5C 241.866,77.1912 240.7,76.8578 238.5,82.5C 237.07,82.4208 235.736,82.7542 234.5,83.5C 232.389,82.0512 230.056,81.0512 227.5,80.5C 226.702,80.0431 226.369,79.3764 226.5,78.5C 228,74.827 230,71.4937 232.5,68.5C 234.153,71.1435 236.487,73.1435 239.5,74.5C 240.842,73.0977 241.676,73.4311 242,75.5C 242.333,74.8333 242.667,74.1667 243,73.5C 244.644,76.9125 247.144,77.9125 250.5,76.5C 252.098,78.9734 253.598,78.9734 255,76.5C 258.563,77.097 261.896,77.097 265,76.5C 265.869,79.7626 267.203,80.0959 269,77.5C 270.925,79.9734 272.758,79.9734 274.5,77.5C 276.329,78.2824 277.829,77.6157 279,75.5C 281.402,77.5089 283.402,77.5089 285,75.5C 285.333,76.1667 285.667,76.8333 286,77.5C 288.333,76.5 290,74.8333 291,72.5C 291.451,74.9288 292.285,75.0955 293.5,73C 292.185,71.6054 292.519,70.6054 294.5,70C 293.033,68.9025 292.199,67.4025 292,65.5C 290.417,65.493 288.751,65.8263 287,66.5C 286.464,64.4328 286.964,62.5994 288.5,61C 286.991,59.3264 286.324,57.6597 286.5,56C 287.5,55.6667 288.5,55.3333 289.5,55C 287.218,53.9158 286.884,52.4158 288.5,50.5C 291.844,46.4602 295.177,42.4602 298.5,38.5C 300.371,38.1412 301.871,37.1412 303,35.5C 303.423,36.9561 304.256,37.4561 305.5,37C 305.895,34.2195 307.228,32.0528 309.5,30.5C 309.833,31.1667 310.167,31.8333 310.5,32.5C 309.176,33.0059 308.509,34.3392 308.5,36.5C 310.527,36.6621 312.527,36.4955 314.5,36C 317.287,34.3233 320.12,32.8233 323,31.5C 323.333,31.8333 323.667,32.1667 324,32.5C 326.766,30.9804 328.433,28.6471 329,25.5C 329.333,25.8333 329.667,26.1667 330,26.5C 331.781,23.7259 333.115,20.7259 334,17.5C 335.264,17.3601 336.431,17.3601 337.5,17.5C 337.023,16.5224 336.357,15.6891 335.5,15C 335.833,14.6667 336.167,14.3333 336.5,14C 332.5,13.6667 328.5,13.3333 324.5,13C 325.551,11.6152 326.884,10.6152 328.5,10C 332.609,9.05573 336.609,8.22239 340.5,7.5C 343.314,6.83533 346.314,6.50199 349.5,6.5C 353.701,6.28323 357.701,6.94989 361.5,8.5C 346.791,16.7828 333.624,27.1161 322,39.5C 315.742,47.4329 311.909,56.4329 310.5,66.5 Z"/></g>
<g><path style="opacity:1" fill="#e7462f" d="M 331.5,7.5 C 334.5,7.5 337.5,7.5 340.5,7.5C 336.609,8.22239 332.609,9.05573 328.5,10C 326.884,10.6152 325.551,11.6152 324.5,13C 328.5,13.3333 332.5,13.6667 336.5,14C 336.167,14.3333 335.833,14.6667 335.5,15C 336.357,15.6891 337.023,16.5224 337.5,17.5C 336.431,17.3601 335.264,17.3601 334,17.5C 333.115,20.7259 331.781,23.7259 330,26.5C 329.667,26.1667 329.333,25.8333 329,25.5C 328.433,28.6471 326.766,30.9804 324,32.5C 323.667,32.1667 323.333,31.8333 323,31.5C 320.12,32.8233 317.287,34.3233 314.5,36C 312.527,36.4955 310.527,36.6621 308.5,36.5C 308.509,34.3392 309.176,33.0059 310.5,32.5C 310.167,31.8333 309.833,31.1667 309.5,30.5C 307.228,32.0528 305.895,34.2195 305.5,37C 304.256,37.4561 303.423,36.9561 303,35.5C 301.871,37.1412 300.371,38.1412 298.5,38.5C 308.047,29.0453 319.047,21.5453 331.5,16C 311.561,17.3741 292.895,24.5407 275.5,37.5C 273.403,37.0033 271.57,36.67 270,36.5C 267.705,38.3633 265.538,40.3633 263.5,42.5C 262.5,41.8333 261.5,41.1667 260.5,40.5C 257.203,43.3463 253.87,46.0129 250.5,48.5C 251.26,47.1067 251.926,45.6067 252.5,44C 252.472,42.9302 252.139,42.0968 251.5,41.5C 253.607,39.2733 255.94,37.2733 258.5,35.5C 277.274,22.9172 297.607,14.2505 319.5,9.5C 323.582,9.10823 327.582,8.44157 331.5,7.5 Z"/></g>
<g><path style="opacity:1" fill="#890803" d="M 319.5,9.5 C 297.607,14.2505 277.274,22.9172 258.5,35.5C 258.452,32.741 258.118,29.9076 257.5,27C 259.881,25.2344 262.548,24.0678 265.5,23.5C 266.386,22.675 266.719,21.675 266.5,20.5C 270.569,17.1319 275.236,14.7986 280.5,13.5C 284.706,13.1152 288.706,12.1152 292.5,10.5C 293.994,10.7092 295.161,11.3759 296,12.5C 296.317,10.6992 296.984,10.3659 298,11.5C 301.459,10.8666 304.959,10.2 308.5,9.5C 308.808,8.69194 309.308,8.02527 310,7.5C 313.107,7.56106 316.274,8.22772 319.5,9.5 Z"/></g>
<g><path style="opacity:1" fill="#c0403a" d="M 60.5,22.5 C 61.4916,22.3284 62.1583,22.6618 62.5,23.5C 52.5,23.5 42.5,23.5 32.5,23.5C 32.7373,24.791 32.404,25.791 31.5,26.5C 31.5,25.1667 31.5,23.8333 31.5,22.5C 41.0818,22.0194 50.7484,22.0194 60.5,22.5 Z"/></g>
<g><path style="opacity:1" fill="#bf3f36" d="M 216.5,25.5 C 216.167,25.5 215.833,25.5 215.5,25.5C 184.518,23.5074 153.184,22.8408 121.5,23.5C 121.5,23.1667 121.5,22.8333 121.5,22.5C 153.334,22.4478 185.334,22.4478 217.5,22.5C 217.737,23.791 217.404,24.791 216.5,25.5 Z"/></g>
<g><path style="opacity:1" fill="#da8f8b" d="M 60.5,22.5 C 61.8488,21.2035 63.1821,21.3702 64.5,23C 63.9011,24.6225 63.2344,26.1225 62.5,27.5C 62.5,26.1667 62.5,24.8333 62.5,23.5C 62.1583,22.6618 61.4916,22.3284 60.5,22.5 Z"/></g>
<g><path style="opacity:1" fill="#faedec" d="M 298.5,38.5 C 295.177,42.4602 291.844,46.4602 288.5,50.5C 286.938,50.7329 285.605,51.3995 284.5,52.5C 280.524,53.3307 276.524,53.4973 272.5,53C 268.874,50.7487 267.707,47.5821 269,43.5C 271.335,41.5998 273.502,39.5998 275.5,37.5C 292.895,24.5407 311.561,17.3741 331.5,16C 319.047,21.5453 308.047,29.0453 298.5,38.5 Z"/></g>
<g><path style="opacity:1" fill="#c51917" d="M 121.5,23.5 C 153.184,22.8408 184.518,23.5074 215.5,25.5C 214.422,28.4021 213.756,31.4021 213.5,34.5C 213.737,35.791 213.404,36.791 212.5,37.5C 210.72,38.9899 210.054,40.9899 210.5,43.5C 201.544,54.7904 191.877,65.457 181.5,75.5C 180.188,74.1877 178.854,72.8543 177.5,71.5C 176.575,72.6405 175.741,72.6405 175,71.5C 174.667,72.1667 174.333,72.8333 174,73.5C 172.316,71.2993 170.316,70.6327 168,71.5C 167.717,68.2577 166.883,67.9244 165.5,70.5C 166.83,73.8488 166.33,74.1821 164,71.5C 162.501,73.7562 160.834,73.7562 159,71.5C 157.584,72.5733 156.25,72.5733 155,71.5C 152.843,73.718 150.343,74.8846 147.5,75C 152.175,70.5011 155.841,65.3345 158.5,59.5C 159.5,57.8333 160.833,56.5 162.5,55.5C 164.262,54.7377 165.262,53.4044 165.5,51.5C 165.833,50.5 166.5,49.8333 167.5,49.5C 168.043,49.44 168.376,49.1067 168.5,48.5C 150.148,48.1595 132.148,47.1595 114.5,45.5C 116.277,42.4954 117.277,39.1621 117.5,35.5C 117.595,33.2143 118.262,31.2143 119.5,29.5C 120.738,27.7857 121.405,25.7857 121.5,23.5 Z"/></g>
<g><path style="opacity:1" fill="#dd6f6c" d="M 121.5,22.5 C 121.5,22.8333 121.5,23.1667 121.5,23.5C 121.405,25.7857 120.738,27.7857 119.5,29.5C 119.41,26.8478 120.076,24.5145 121.5,22.5 Z"/></g>
<g><path style="opacity:1" fill="#872118" d="M 366.5,12.5 C 351.233,22.7679 337.9,35.1012 326.5,49.5C 326.673,46.8205 327.673,44.4872 329.5,42.5C 329.167,41.8333 328.833,41.1667 328.5,40.5C 330.512,38.6586 332.845,37.6586 335.5,37.5C 335.146,35.4588 335.146,33.6255 335.5,32C 334.833,31.3333 334.167,30.6667 333.5,30C 335.869,29.4641 337.869,28.2974 339.5,26.5C 340.086,26.7093 340.586,27.0426 341,27.5C 341.191,25.3487 342.358,23.3487 344.5,21.5C 346.816,24.4265 348.316,24.0932 349,20.5C 349.414,20.9574 349.914,21.2907 350.5,21.5C 351.23,20.0663 352.23,18.8996 353.5,18C 352.833,17.6667 352.167,17.3333 351.5,17C 353.076,16.5604 354.41,15.727 355.5,14.5C 356.524,15.8532 357.857,16.5198 359.5,16.5C 359.34,14.8008 359.506,13.1341 360,11.5C 361.822,11.9679 363.989,12.3012 366.5,12.5 Z"/></g>
<g><path style="opacity:1" fill="#e18c86" d="M 215.5,25.5 C 215.833,25.5 216.167,25.5 216.5,25.5C 216.072,28.7846 215.072,31.7846 213.5,34.5C 213.756,31.4021 214.422,28.4021 215.5,25.5 Z"/></g>
<g><path style="opacity:1" fill="#db817f" d="M 31.5,26.5 C 31.5905,29.1522 30.9238,31.4855 29.5,33.5C 29.4095,30.8478 30.0762,28.5145 31.5,26.5 Z"/></g>
<g><path style="opacity:1" fill="#cf6c68" d="M 62.5,28.5 C 62.2785,31.0673 61.6118,33.4006 60.5,35.5C 60.3379,33.4727 60.5045,31.4727 61,29.5C 61.3826,28.944 61.8826,28.6107 62.5,28.5 Z"/></g>
<g><path style="opacity:1" fill="#c21916" d="M 62.5,23.5 C 62.5,24.8333 62.5,26.1667 62.5,27.5C 62.5,27.8333 62.5,28.1667 62.5,28.5C 61.8826,28.6107 61.3826,28.944 61,29.5C 60.5045,31.4727 60.3379,33.4727 60.5,35.5C 60.5,36.1667 60.5,36.8333 60.5,37.5C 58.8372,39.4385 58.1706,41.7718 58.5,44.5C 58.5,44.8333 58.5,45.1667 58.5,45.5C 56.4318,48.763 55.4318,52.4296 55.5,56.5C 55.5,56.8333 55.5,57.1667 55.5,57.5C 54.5,57.8333 53.8333,58.5 53.5,59.5C 52.0609,60.5092 50.7276,60.1759 49.5,58.5C 48.1166,61.0756 47.2833,60.7423 47,57.5C 46.3109,58.3567 45.4776,59.0233 44.5,59.5C 44.277,58.0333 43.9437,56.5333 43.5,55C 41.714,54.2155 40.214,53.0488 39,51.5C 37.1667,54.3333 35.6667,54.1667 34.5,51C 35.8331,49.1598 35.6665,48.6598 34,49.5C 33,48.8333 32,48.1667 31,47.5C 30.3828,48.4491 30.5494,49.2825 31.5,50C 30.4258,50.7387 29.7591,51.7387 29.5,53C 30.2052,54.4219 30.5385,55.7553 30.5,57C 29.2341,57.3095 28.0674,57.8095 27,58.5C 26.8908,62.9485 25.5575,66.9485 23,70.5C 22.502,67.5184 22.3354,64.5184 22.5,61.5C 22.6997,58.3704 23.3664,55.3704 24.5,52.5C 25.9238,50.4855 26.5905,48.1522 26.5,45.5C 26.8984,41.2393 27.8984,37.2393 29.5,33.5C 30.9238,31.4855 31.5905,29.1522 31.5,26.5C 32.404,25.791 32.7373,24.791 32.5,23.5C 42.5,23.5 52.5,23.5 62.5,23.5 Z"/></g>
<g><path style="opacity:1" fill="#d6716e" d="M 117.5,35.5 C 117.277,39.1621 116.277,42.4954 114.5,45.5C 114.723,41.8379 115.723,38.5046 117.5,35.5 Z"/></g>
<g><path style="opacity:1" fill="#d46a5f" d="M 212.5,37.5 C 212.405,39.7857 211.738,41.7857 210.5,43.5C 210.054,40.9899 210.72,38.9899 212.5,37.5 Z"/></g>
<g><path style="opacity:1" fill="#db887f" d="M 60.5,37.5 C 60.2785,40.0673 59.6118,42.4006 58.5,44.5C 58.1706,41.7718 58.8372,39.4385 60.5,37.5 Z"/></g>
<g><path style="opacity:1" fill="#424242" d="M 380.5,43.5 C 388.238,43.7322 395.905,43.7322 403.5,43.5C 396.723,75.1093 389.39,106.609 381.5,138C 382.271,140.267 383.604,142.1 385.5,143.5C 383.242,147.202 381.909,151.202 381.5,155.5C 374.804,156.151 368.471,154.985 362.5,152C 359.34,149.053 357.673,145.386 357.5,141C 365.255,108.484 372.921,75.9839 380.5,43.5 Z"/></g>
<g><path style="opacity:1" fill="#e29e9c" d="M 114.5,45.5 C 132.148,47.1595 150.148,48.1595 168.5,48.5C 168.376,49.1067 168.043,49.44 167.5,49.5C 149.674,48.5032 131.674,48.1699 113.5,48.5C 113.263,47.209 113.596,46.209 114.5,45.5 Z"/></g>
<g><path style="opacity:1" fill="#d8807e" d="M 58.5,45.5 C 57.9448,49.3968 56.9448,53.0635 55.5,56.5C 55.4318,52.4296 56.4318,48.763 58.5,45.5 Z"/></g>
<g><path style="opacity:1" fill="#b2605e" d="M 231.5,45.5 C 230.415,47.5869 228.749,48.9202 226.5,49.5C 227.585,47.4131 229.251,46.0798 231.5,45.5 Z"/></g>
<g><path style="opacity:1" fill="#d88c8a" d="M 26.5,45.5 C 26.5905,48.1522 25.9238,50.4855 24.5,52.5C 24.4095,49.8478 25.0762,47.5145 26.5,45.5 Z"/></g>
<g><path style="opacity:1" fill="#df837d" d="M 165.5,51.5 C 165.262,53.4044 164.262,54.7377 162.5,55.5C 162.738,53.5956 163.738,52.2623 165.5,51.5 Z"/></g>
<g><path style="opacity:1" fill="#eb583e" d="M 275.5,37.5 C 273.502,39.5998 271.335,41.5998 269,43.5C 267.707,47.5821 268.874,50.7487 272.5,53C 276.524,53.4973 280.524,53.3307 284.5,52.5C 281.953,56.3134 278.62,59.4801 274.5,62C 275.833,62.6667 275.833,63.3333 274.5,64C 276.709,64.957 276.543,66.1236 274,67.5C 272.615,66.4495 271.615,65.1161 271,63.5C 270.667,64.1667 270.333,64.8333 270,65.5C 268.034,62.7735 266.034,62.4402 264,64.5C 262.057,62.2849 260.391,62.2849 259,64.5C 258.085,63.6721 257.419,62.6721 257,61.5C 256.333,62.8333 255.667,62.8333 255,61.5C 253.354,63.597 251.354,65.2637 249,66.5C 247.482,66.9426 246.315,66.2759 245.5,64.5C 243.844,66.0224 242.677,65.689 242,63.5C 240.984,64.6341 240.317,64.3008 240,62.5C 238.886,66.4557 238.053,66.4557 237.5,62.5C 241.127,57.2056 245.46,52.539 250.5,48.5C 253.87,46.0129 257.203,43.3463 260.5,40.5C 261.5,41.1667 262.5,41.8333 263.5,42.5C 265.538,40.3633 267.705,38.3633 270,36.5C 271.57,36.67 273.403,37.0033 275.5,37.5 Z"/></g>
<g><path style="opacity:1" fill="#ec4c33" d="M 288.5,50.5 C 286.884,52.4158 287.218,53.9158 289.5,55C 288.5,55.3333 287.5,55.6667 286.5,56C 286.324,57.6597 286.991,59.3264 288.5,61C 286.964,62.5994 286.464,64.4328 287,66.5C 288.751,65.8263 290.417,65.493 292,65.5C 292.199,67.4025 293.033,68.9025 294.5,70C 292.519,70.6054 292.185,71.6054 293.5,73C 292.285,75.0955 291.451,74.9288 291,72.5C 290,74.8333 288.333,76.5 286,77.5C 285.667,76.8333 285.333,76.1667 285,75.5C 283.402,77.5089 281.402,77.5089 279,75.5C 277.829,77.6157 276.329,78.2824 274.5,77.5C 272.758,79.9734 270.925,79.9734 269,77.5C 267.203,80.0959 265.869,79.7626 265,76.5C 261.896,77.097 258.563,77.097 255,76.5C 253.598,78.9734 252.098,78.9734 250.5,76.5C 247.144,77.9125 244.644,76.9125 243,73.5C 242.667,74.1667 242.333,74.8333 242,75.5C 241.676,73.4311 240.842,73.0977 239.5,74.5C 236.487,73.1435 234.153,71.1435 232.5,68.5C 233.701,66.0905 235.367,64.0905 237.5,62.5C 238.053,66.4557 238.886,66.4557 240,62.5C 240.317,64.3008 240.984,64.6341 242,63.5C 242.677,65.689 243.844,66.0224 245.5,64.5C 246.315,66.2759 247.482,66.9426 249,66.5C 251.354,65.2637 253.354,63.597 255,61.5C 255.667,62.8333 256.333,62.8333 257,61.5C 257.419,62.6721 258.085,63.6721 259,64.5C 260.391,62.2849 262.057,62.2849 264,64.5C 266.034,62.4402 268.034,62.7735 270,65.5C 270.333,64.8333 270.667,64.1667 271,63.5C 271.615,65.1161 272.615,66.4495 274,67.5C 276.543,66.1236 276.709,64.957 274.5,64C 275.833,63.3333 275.833,62.6667 274.5,62C 278.62,59.4801 281.953,56.3134 284.5,52.5C 285.605,51.3995 286.938,50.7329 288.5,50.5 Z"/></g>
<g><path style="opacity:1" fill="#b16867" d="M 219.5,57.5 C 219.573,59.0269 218.906,60.0269 217.5,60.5C 217.427,58.9731 218.094,57.9731 219.5,57.5 Z"/></g>
<g><path style="opacity:1" fill="#d2736d" d="M 55.5,57.5 C 55.2785,60.0673 54.6118,62.4006 53.5,64.5C 53.5,62.8333 53.5,61.1667 53.5,59.5C 53.8333,58.5 54.5,57.8333 55.5,57.5 Z"/></g>
<g><path style="opacity:1" fill="#913b32" d="M 354.5,90.5 C 356.33,79.5733 356.83,68.5733 356,57.5C 355.241,59.0629 354.074,60.0629 352.5,60.5C 353.786,57.883 355.453,55.5496 357.5,53.5C 360.36,66.2523 359.36,78.5857 354.5,90.5 Z"/></g>
<g><path style="opacity:1" fill="#da8682" d="M 154.5,63.5 C 154.573,65.0269 153.906,66.0269 152.5,66.5C 152.427,64.9731 153.094,63.9731 154.5,63.5 Z"/></g>
<g><path style="opacity:1" fill="#d32316" d="M 251.5,41.5 C 252.139,42.0968 252.472,42.9302 252.5,44C 251.926,45.6067 251.26,47.1067 250.5,48.5C 245.46,52.539 241.127,57.2056 237.5,62.5C 235.367,64.0905 233.701,66.0905 232.5,68.5C 230,71.4937 228,74.827 226.5,78.5C 224.93,81.3135 223.597,84.3135 222.5,87.5C 220.989,89.4758 220.156,91.8091 220,94.5C 219.501,99.8229 219.334,105.156 219.5,110.5C 218.373,106.185 217.873,101.852 218,97.5C 215.735,95.8092 213.901,93.8092 212.5,91.5C 213.762,88.978 214.429,86.3113 214.5,83.5C 222.734,65.8843 235.067,51.8843 251.5,41.5 Z"/></g>
<g><path style="opacity:1" fill="#d78882" d="M 52.5,70.5 C 52.2785,73.0673 51.6118,75.4006 50.5,77.5C 50.1706,74.7718 50.8372,72.4385 52.5,70.5 Z"/></g>
<g><path style="opacity:1" fill="#a60c04" d="M 310.5,66.5 C 310.179,67.8175 309.846,69.1508 309.5,70.5C 310.519,72.5107 311.519,74.5107 312.5,76.5C 308.996,78.4646 305.33,80.298 301.5,82C 298.773,82.8184 296.106,82.6517 293.5,81.5C 298.864,76.1345 304.531,71.1345 310.5,66.5 Z"/></g>
<g><path style="opacity:1" fill="#b31813" d="M 53.5,59.5 C 53.5,61.1667 53.5,62.8333 53.5,64.5C 53.4828,66.5648 53.1495,68.5648 52.5,70.5C 50.8372,72.4385 50.1706,74.7718 50.5,77.5C 50.634,79.2915 50.3007,80.9582 49.5,82.5C 47.7868,83.6354 47.1201,85.302 47.5,87.5C 46.8826,87.6107 46.3826,87.944 46,88.5C 45.3333,91.1667 44.6667,93.8333 44,96.5C 43.6667,95.5 43.3333,94.5 43,93.5C 41.806,95.5254 40.306,95.8587 38.5,94.5C 36.7314,96.4635 34.8981,96.1301 33,93.5C 32.6667,94.1667 32.3333,94.8333 32,95.5C 28.6599,94.8447 25.3266,94.5114 22,94.5C 18.3871,94.9062 16.3871,96.9062 16,100.5C 15.8091,98.2922 15.3091,96.2922 14.5,94.5C 16.6752,83.268 19.3419,72.268 22.5,61.5C 22.3354,64.5184 22.502,67.5184 23,70.5C 25.5575,66.9485 26.8908,62.9485 27,58.5C 28.0674,57.8095 29.2341,57.3095 30.5,57C 30.5385,55.7553 30.2052,54.4219 29.5,53C 29.7591,51.7387 30.4258,50.7387 31.5,50C 30.5494,49.2825 30.3828,48.4491 31,47.5C 32,48.1667 33,48.8333 34,49.5C 35.6665,48.6598 35.8331,49.1598 34.5,51C 35.6667,54.1667 37.1667,54.3333 39,51.5C 40.214,53.0488 41.714,54.2155 43.5,55C 43.9437,56.5333 44.277,58.0333 44.5,59.5C 45.4776,59.0233 46.3109,58.3567 47,57.5C 47.2833,60.7423 48.1166,61.0756 49.5,58.5C 50.7276,60.1759 52.0609,60.5092 53.5,59.5 Z"/></g>
<g><path style="opacity:1" fill="#424142" d="M 476.5,82.5 C 477.209,83.404 478.209,83.7373 479.5,83.5C 479.5,85.8333 479.5,88.1667 479.5,90.5C 476.004,105.818 472.504,121.151 469,136.5C 467.493,142.364 467.326,148.197 468.5,154C 461.342,155.462 454.008,155.962 446.5,155.5C 446.372,151.615 446.205,147.948 446,144.5C 442.482,149.998 437.648,153.664 431.5,155.5C 426.87,156.229 422.203,156.563 417.5,156.5C 406.959,154.461 400.459,148.128 398,137.5C 395.677,115.995 402.844,98.4948 419.5,85C 431.093,77.481 443.759,74.8143 457.5,77C 464.256,77.775 470.589,79.6083 476.5,82.5 Z M 440.5,95.5 C 444.514,95.3345 448.514,95.5012 452.5,96C 453.624,96.2492 454.624,96.7492 455.5,97.5C 453.034,107.731 449.867,117.731 446,127.5C 443.117,132.05 439.284,135.55 434.5,138C 427.378,140.026 422.878,137.526 421,130.5C 420.405,120.547 423.072,111.547 429,103.5C 432.482,100.161 436.315,97.4942 440.5,95.5 Z"/></g>
<g><path style="opacity:1" fill="#b51713" d="M 158.5,59.5 C 155.841,65.3345 152.175,70.5011 147.5,75C 150.343,74.8846 152.843,73.718 155,71.5C 156.25,72.5733 157.584,72.5733 159,71.5C 160.834,73.7562 162.501,73.7562 164,71.5C 166.33,74.1821 166.83,73.8488 165.5,70.5C 166.883,67.9244 167.717,68.2577 168,71.5C 170.316,70.6327 172.316,71.2993 174,73.5C 174.333,72.8333 174.667,72.1667 175,71.5C 175.741,72.6405 176.575,72.6405 177.5,71.5C 178.854,72.8543 180.188,74.1877 181.5,75.5C 178.202,80.1323 174.536,84.4656 170.5,88.5C 170.539,87.2438 170.039,86.2438 169,85.5C 164.908,88.3391 161.741,92.0058 159.5,96.5C 159.709,97.086 160.043,97.586 160.5,98C 158.833,98.3333 157.167,98.6667 155.5,99C 155.67,100.57 156.003,102.403 156.5,104.5C 152.849,105.151 149.682,106.818 147,109.5C 145.609,107.285 143.943,107.285 142,109.5C 139.603,106.6 136.77,104.267 133.5,102.5C 131.191,103.933 129.691,103.266 129,100.5C 127.412,102.421 125.912,104.421 124.5,106.5C 122.477,107.855 120.477,108.188 118.5,107.5C 120.038,105.757 121.038,103.757 121.5,101.5C 126.157,95.511 131.157,89.8443 136.5,84.5C 137.906,84.0269 138.573,83.0269 138.5,81.5C 142.944,76.2679 147.61,71.2679 152.5,66.5C 153.906,66.0269 154.573,65.0269 154.5,63.5C 155.5,61.8333 156.833,60.5 158.5,59.5 Z"/></g>
<g><path style="opacity:1" fill="#414141" d="M 607.5,79.5 C 607.5,80.5 607.5,81.5 607.5,82.5C 594.167,106.5 580.833,130.5 567.5,154.5C 559.5,154.5 551.5,154.5 543.5,154.5C 543.825,147.313 543.491,140.313 542.5,133.5C 542.5,132.833 542.5,132.167 542.5,131.5C 542.666,122.161 542.5,112.827 542,103.5C 541.487,104.527 540.987,105.527 540.5,106.5C 533.893,123.045 526.227,139.045 517.5,154.5C 509.833,154.5 502.167,154.5 494.5,154.5C 494.784,152.585 494.451,150.919 493.5,149.5C 491.022,126.277 489.355,102.944 488.5,79.5C 496.5,79.5 504.5,79.5 512.5,79.5C 512.636,95.9152 512.469,112.249 512,128.5C 520.303,112.563 528.637,96.5628 537,80.5C 544.079,79.5201 551.245,79.1868 558.5,79.5C 559.14,95.8249 559.64,112.158 560,128.5C 567.121,112.257 574.788,96.2567 583,80.5C 591.081,79.5175 599.248,79.1842 607.5,79.5 Z"/></g>
<g><path style="opacity:1" fill="#d7807c" d="M 138.5,81.5 C 138.573,83.0269 137.906,84.0269 136.5,84.5C 136.427,82.9731 137.094,81.9731 138.5,81.5 Z"/></g>
<g><path style="opacity:1" fill="#ea3623" d="M 226.5,78.5 C 226.369,79.3764 226.702,80.0431 227.5,80.5C 230.056,81.0512 232.389,82.0512 234.5,83.5C 235.736,82.7542 237.07,82.4208 238.5,82.5C 240.7,76.8578 241.866,77.1912 242,83.5C 244.837,85.7572 247.17,85.7572 249,83.5C 250.333,83.5 251.667,83.5 253,83.5C 253.249,84.624 253.749,85.624 254.5,86.5C 256.156,84.9776 257.323,85.311 258,87.5C 258.401,85.4788 259.568,84.1455 261.5,83.5C 263.955,83.7429 266.455,83.7429 269,83.5C 269.483,84.448 269.649,85.448 269.5,86.5C 270.822,86.67 271.989,86.3366 273,85.5C 275.09,86.7935 277.09,87.7935 279,88.5C 280.255,86.1466 281.922,85.4799 284,86.5C 286.728,86.2358 289.061,85.2358 291,83.5C 291.667,84.8333 292.333,86.1667 293,87.5C 293.684,86.2161 293.517,85.0495 292.5,84C 293.167,83.8333 293.833,83.6667 294.5,83.5C 295.739,85.2779 297.572,87.2779 300,89.5C 301.395,88.5697 302.895,88.5697 304.5,89.5C 306.623,87.6901 308.957,86.3568 311.5,85.5C 311.728,89.3905 311.394,93.2238 310.5,97C 308.482,100.048 306.649,103.214 305,106.5C 303.25,108.424 301.417,110.091 299.5,111.5C 300.366,109.856 300.866,108.189 301,106.5C 298.943,109.014 296.61,110.347 294,110.5C 292.482,110.943 291.315,110.276 290.5,108.5C 291.935,106.599 293.602,106.266 295.5,107.5C 297.987,105.191 299.987,102.524 301.5,99.5C 300.282,98.1973 300.615,97.1973 302.5,96.5C 301.106,94.3087 299.606,92.9753 298,92.5C 297,93.8333 296,93.8333 295,92.5C 294.612,94.7147 293.612,96.048 292,96.5C 289.418,95.7161 287.751,94.0495 287,91.5C 286.781,92.938 286.281,94.2713 285.5,95.5C 285.089,94.7376 284.923,93.7376 285,92.5C 284,93.5 283,94.5 282,95.5C 281.667,94.8333 281.333,94.1667 281,93.5C 279.225,96.0443 277.392,96.0443 275.5,93.5C 274.459,95.9913 273.626,95.9913 273,93.5C 272.259,94.6405 271.425,94.6405 270.5,93.5C 268.386,94.0339 266.552,95.0339 265,96.5C 261.499,93.8871 257.999,93.5538 254.5,95.5C 252.833,94.8333 251.167,94.1667 249.5,93.5C 248.459,95.9913 247.626,95.9913 247,93.5C 246.667,94.1667 246.333,94.8333 246,95.5C 244.826,91.6123 242.326,90.279 238.5,91.5C 239.711,92.7202 239.711,93.8869 238.5,95C 240.396,96.0646 240.563,96.8979 239,97.5C 236.574,95.3996 233.908,93.7329 231,92.5C 230.667,92.8333 230.333,93.1667 230,93.5C 229.667,92.5 229.333,91.5 229,90.5C 228,90.5 227,90.5 226,90.5C 225.16,87.5363 224.16,87.203 223,89.5C 222.536,88.9056 222.369,88.2389 222.5,87.5C 223.597,84.3135 224.93,81.3135 226.5,78.5 Z"/></g>
<g><path style="opacity:1" fill="#747276" d="M 476.5,82.5 C 478.604,82.2011 480.604,82.5344 482.5,83.5C 481.339,85.8852 480.339,88.2186 479.5,90.5C 479.5,88.1667 479.5,85.8333 479.5,83.5C 478.209,83.7373 477.209,83.404 476.5,82.5 Z"/></g>
<g><path style="opacity:1" fill="#c56966" d="M 49.5,82.5 C 49.2785,85.0673 48.6118,87.4006 47.5,89.5C 47.5,88.8333 47.5,88.1667 47.5,87.5C 47.1201,85.302 47.7868,83.6354 49.5,82.5 Z"/></g>
<g><path style="opacity:1" fill="#ba3729" d="M 170.5,88.5 C 166.177,94.1549 161.51,99.4882 156.5,104.5C 156.003,102.403 155.67,100.57 155.5,99C 157.167,98.6667 158.833,98.3333 160.5,98C 160.043,97.586 159.709,97.086 159.5,96.5C 161.741,92.0058 164.908,88.3391 169,85.5C 170.039,86.2438 170.539,87.2438 170.5,88.5 Z"/></g>
<g><path style="opacity:1" fill="#e6251a" d="M 222.5,87.5 C 222.369,88.2389 222.536,88.9056 223,89.5C 224.16,87.203 225.16,87.5363 226,90.5C 227,90.5 228,90.5 229,90.5C 229.333,91.5 229.667,92.5 230,93.5C 230.333,93.1667 230.667,92.8333 231,92.5C 233.908,93.7329 236.574,95.3996 239,97.5C 240.563,96.8979 240.396,96.0646 238.5,95C 239.711,93.8869 239.711,92.7202 238.5,91.5C 242.326,90.279 244.826,91.6123 246,95.5C 246.333,94.8333 246.667,94.1667 247,93.5C 247.626,95.9913 248.459,95.9913 249.5,93.5C 251.167,94.1667 252.833,94.8333 254.5,95.5C 257.999,93.5538 261.499,93.8871 265,96.5C 266.552,95.0339 268.386,94.0339 270.5,93.5C 271.425,94.6405 272.259,94.6405 273,93.5C 273.626,95.9913 274.459,95.9913 275.5,93.5C 277.392,96.0443 279.225,96.0443 281,93.5C 281.333,94.1667 281.667,94.8333 282,95.5C 283,94.5 284,93.5 285,92.5C 284.923,93.7376 285.089,94.7376 285.5,95.5C 286.281,94.2713 286.781,92.938 287,91.5C 287.751,94.0495 289.418,95.7161 292,96.5C 293.612,96.048 294.612,94.7147 295,92.5C 296,93.8333 297,93.8333 298,92.5C 299.606,92.9753 301.106,94.3087 302.5,96.5C 300.615,97.1973 300.282,98.1973 301.5,99.5C 299.987,102.524 297.987,105.191 295.5,107.5C 293.602,106.266 291.935,106.599 290.5,108.5C 291.315,110.276 292.482,110.943 294,110.5C 296.61,110.347 298.943,109.014 301,106.5C 300.866,108.189 300.366,109.856 299.5,111.5C 292.121,120.643 282.787,126.643 271.5,129.5C 267.482,130.163 263.482,131.33 259.5,133C 255.848,133.499 252.182,133.665 248.5,133.5C 246.801,133.66 245.134,133.494 243.5,133C 238.908,129.538 233.908,126.871 228.5,125C 224.584,120.653 221.584,115.82 219.5,110.5C 219.334,105.156 219.501,99.8229 220,94.5C 220.156,91.8091 220.989,89.4758 222.5,87.5 Z"/></g>
<g><path style="opacity:1" fill="#af6361" d="M 199.5,92.5 C 199.59,95.1522 198.924,97.4855 197.5,99.5C 197.41,96.8478 198.076,94.5145 199.5,92.5 Z"/></g>
<g><path style="opacity:1" fill="#c06258" d="M 46.5,94.5 C 45.7849,100.103 44.4515,105.436 42.5,110.5C 42.542,104.662 43.8753,99.3282 46.5,94.5 Z"/></g>
<g><path style="opacity:1" fill="#9b463d" d="M 351.5,98.5 C 350.331,101.511 348.664,104.178 346.5,106.5C 346.536,102.8 348.203,100.133 351.5,98.5 Z"/></g>
<g><path style="opacity:1" fill="#afadaf" d="M 542.5,131.5 C 541.833,123.167 541.167,114.833 540.5,106.5C 540.987,105.527 541.487,104.527 542,103.5C 542.5,112.827 542.666,122.161 542.5,131.5 Z"/></g>
<g><path style="opacity:1" fill="#a5595b" d="M 197.5,99.5 C 196.815,107.816 196.482,116.149 196.5,124.5C 195.835,121.351 195.502,118.018 195.5,114.5C 195.334,109.245 196.001,104.245 197.5,99.5 Z"/></g>
<g><path style="opacity:1" fill="#d01511" d="M 330.5,112.5 C 328.876,112.36 327.71,113.027 327,114.5C 325.434,115.061 324.101,114.394 323,112.5C 321.667,113.167 320.667,114.167 320,115.5C 319.667,115.167 319.333,114.833 319,114.5C 318.316,116.359 317.316,118.026 316,119.5C 315.667,118.833 315.333,118.167 315,117.5C 313.899,119.394 312.566,120.061 311,119.5C 309.839,121.916 308.172,123.916 306,125.5C 305.667,124.833 305.333,124.167 305,123.5C 304.809,126.175 303.975,128.175 302.5,129.5C 300.876,129.64 299.71,128.973 299,127.5C 297.903,129.053 296.57,130.386 295,131.5C 293.691,129.109 292.691,129.109 292,131.5C 291.338,127.246 289.505,126.58 286.5,129.5C 285.5,128.833 284.5,128.167 283.5,127.5C 282.318,129.645 280.818,129.645 279,127.5C 276.699,128.867 274.199,129.534 271.5,129.5C 282.787,126.643 292.121,120.643 299.5,111.5C 301.417,110.091 303.25,108.424 305,106.5C 306.649,103.214 308.482,100.048 310.5,97C 311.394,93.2238 311.728,89.3905 311.5,85.5C 312.092,82.8728 312.425,80.2062 312.5,77.5C 320.228,84.1125 328.895,85.2792 338.5,81C 342.899,79.0936 346.899,76.5936 350.5,73.5C 351.082,77.6387 350.748,81.8054 349.5,86C 344.249,95.6915 337.916,104.525 330.5,112.5 Z"/></g>
<g><path style="opacity:1" fill="#7e0b07" d="M 266.5,20.5 C 266.719,21.675 266.386,22.675 265.5,23.5C 262.548,24.0678 259.881,25.2344 257.5,27C 258.118,29.9076 258.452,32.741 258.5,35.5C 255.94,37.2733 253.607,39.2733 251.5,41.5C 235.067,51.8843 222.734,65.8843 214.5,83.5C 206.85,97.2701 204.683,111.937 208,127.5C 209.708,132.412 212.542,136.579 216.5,140C 229.316,148.136 243.316,150.803 258.5,148C 268.305,146.298 277.972,144.131 287.5,141.5C 288.496,141.414 289.329,141.748 290,142.5C 291.747,140.081 293.914,139.415 296.5,140.5C 297.87,140.856 298.87,141.69 299.5,143C 298.483,145.15 297.15,146.983 295.5,148.5C 291.347,148.235 288.013,149.569 285.5,152.5C 283.208,152.756 281.041,152.423 279,151.5C 278.517,152.448 278.351,153.448 278.5,154.5C 275.612,153.99 273.279,154.656 271.5,156.5C 266.887,157.79 262.22,158.79 257.5,159.5C 249.167,159.5 240.833,159.5 232.5,159.5C 232.5,159.167 232.5,158.833 232.5,158.5C 230.485,157.076 228.152,156.41 225.5,156.5C 214.53,153.858 206.53,147.525 201.5,137.5C 201.116,133.077 199.449,129.41 196.5,126.5C 196.5,125.833 196.5,125.167 196.5,124.5C 196.482,116.149 196.815,107.816 197.5,99.5C 198.924,97.4855 199.59,95.1522 199.5,92.5C 202.938,80.2806 208.938,69.614 217.5,60.5C 218.906,60.0269 219.573,59.0269 219.5,57.5C 221.843,54.7928 224.177,52.1261 226.5,49.5C 228.749,48.9202 230.415,47.5869 231.5,45.5C 241.221,34.4701 252.888,26.1367 266.5,20.5 Z"/></g>
<g><path style="opacity:1" fill="#a10c0a" d="M 47.5,87.5 C 47.5,88.1667 47.5,88.8333 47.5,89.5C 47.7845,91.4147 47.4511,93.0813 46.5,94.5C 43.8753,99.3282 42.542,104.662 42.5,110.5C 42.6747,112.621 42.3414,114.621 41.5,116.5C 40.8333,117.167 40.1667,117.833 39.5,118.5C 37.6519,121.177 35.9852,124.177 34.5,127.5C 31.4435,127.938 28.7769,129.105 26.5,131C 26.8333,131.333 27.1667,131.667 27.5,132C 25.9532,132.333 24.6199,131.833 23.5,130.5C 22.8076,131.025 22.3076,131.692 22,132.5C 18.4828,128.727 15.6495,129.394 13.5,134.5C 14.0733,136.354 14.4066,138.187 14.5,140C 10.919,140.675 10.919,141.841 14.5,143.5C 16.5608,142.329 17.7275,140.995 18,139.5C 20.0597,140.59 21.393,142.257 22,144.5C 22.6152,142.884 23.6152,141.551 25,140.5C 25.3334,142.047 24.8334,143.38 23.5,144.5C 24.6215,148.91 26.7882,149.91 30,147.5C 33.1275,148.204 36.2942,148.704 39.5,149C 41.7409,150.522 44.0742,151.855 46.5,153C 36.1667,153.667 25.8333,153.667 15.5,153C 5.54974,150.994 5.21641,149.494 14.5,148.5C 12.0056,147.208 9.67228,145.374 7.5,143C 8.79351,140.91 9.79351,138.91 10.5,137C 7.97203,135.983 7.97203,134.816 10.5,133.5C 10.8082,130.012 10.8082,126.846 10.5,124C 12.8749,120.462 15.2082,117.628 17.5,115.5C 17.1401,113.392 16.4734,111.392 15.5,109.5C 14.3247,110.855 13.3247,110.688 12.5,109C 13.4505,105.943 13.7839,102.777 13.5,99.5C 13.2155,97.5853 13.5489,95.9187 14.5,94.5C 15.3091,96.2922 15.8091,98.2922 16,100.5C 16.3871,96.9062 18.3871,94.9062 22,94.5C 25.3266,94.5114 28.6599,94.8447 32,95.5C 32.3333,94.8333 32.6667,94.1667 33,93.5C 34.8981,96.1301 36.7314,96.4635 38.5,94.5C 40.306,95.8587 41.806,95.5254 43,93.5C 43.3333,94.5 43.6667,95.5 44,96.5C 44.6667,93.8333 45.3333,91.1667 46,88.5C 46.3826,87.944 46.8826,87.6107 47.5,87.5 Z"/></g>
<g><path style="opacity:1" fill="#840904" d="M 368.5,2.5 C 370.565,2.51715 372.565,2.85048 374.5,3.5C 375.234,4.70792 375.567,6.04125 375.5,7.5C 374.127,7.34332 372.793,7.50999 371.5,8C 372.056,8.38258 372.389,8.88258 372.5,9.5C 370.819,11.0075 368.819,12.0075 366.5,12.5C 363.989,12.3012 361.822,11.9679 360,11.5C 359.506,13.1341 359.34,14.8008 359.5,16.5C 357.857,16.5198 356.524,15.8532 355.5,14.5C 354.41,15.727 353.076,16.5604 351.5,17C 352.167,17.3333 352.833,17.6667 353.5,18C 352.23,18.8996 351.23,20.0663 350.5,21.5C 349.914,21.2907 349.414,20.9574 349,20.5C 348.316,24.0932 346.816,24.4265 344.5,21.5C 342.358,23.3487 341.191,25.3487 341,27.5C 340.586,27.0426 340.086,26.7093 339.5,26.5C 337.869,28.2974 335.869,29.4641 333.5,30C 334.167,30.6667 334.833,31.3333 335.5,32C 335.146,33.6255 335.146,35.4588 335.5,37.5C 332.845,37.6586 330.512,38.6586 328.5,40.5C 328.833,41.1667 329.167,41.8333 329.5,42.5C 327.673,44.4872 326.673,46.8205 326.5,49.5C 322.962,56.4472 320.629,63.7806 319.5,71.5C 319.539,72.5832 319.873,73.5832 320.5,74.5C 324.649,75.8095 328.649,75.8095 332.5,74.5C 340.11,71.3466 346.776,66.68 352.5,60.5C 354.074,60.0629 355.241,59.0629 356,57.5C 356.83,68.5733 356.33,79.5733 354.5,90.5C 354.5,90.8333 354.5,91.1667 354.5,91.5C 353.883,91.3893 353.383,91.056 353,90.5C 352.529,92.2464 351.862,93.913 351,95.5C 350.333,96.8333 349.667,96.8333 349,95.5C 347.5,97.6667 345.667,99.5 343.5,101C 346.167,101.667 346.167,102.333 343.5,103C 343.833,104 344.167,105 344.5,106C 341.794,108.688 338.127,111.354 333.5,114C 333.957,114.414 334.291,114.914 334.5,115.5C 331.017,118.817 327.684,122.317 324.5,126C 323.385,127.235 323.385,128.402 324.5,129.5C 322.138,130.271 319.804,131.105 317.5,132C 318.167,132.333 318.833,132.667 319.5,133C 318.3,134.031 316.966,134.865 315.5,135.5C 311.237,135.096 307.07,135.096 303,135.5C 300.594,137.087 298.428,138.753 296.5,140.5C 293.914,139.415 291.747,140.081 290,142.5C 289.329,141.748 288.496,141.414 287.5,141.5C 288.833,140.5 290.167,139.5 291.5,138.5C 306.611,133.066 319.611,124.399 330.5,112.5C 337.916,104.525 344.249,95.6915 349.5,86C 350.748,81.8054 351.082,77.6387 350.5,73.5C 346.899,76.5936 342.899,79.0936 338.5,81C 328.895,85.2792 320.228,84.1125 312.5,77.5C 312.5,77.1667 312.5,76.8333 312.5,76.5C 311.519,74.5107 310.519,72.5107 309.5,70.5C 309.846,69.1508 310.179,67.8175 310.5,66.5C 311.909,56.4329 315.742,47.4329 322,39.5C 333.624,27.1161 346.791,16.7828 361.5,8.5C 357.701,6.94989 353.701,6.28323 349.5,6.5C 346.314,6.50199 343.314,6.83533 340.5,7.5C 337.5,7.5 334.5,7.5 331.5,7.5C 332.768,6.21297 332.435,5.21297 330.5,4.5C 331.833,3.83333 333.167,3.16667 334.5,2.5C 345.821,1.6321 357.154,1.6321 368.5,2.5 Z"/></g>
<g><path style="opacity:1" fill="#ba655b" d="M 319.5,71.5 C 323.351,74.1608 327.684,75.1608 332.5,74.5C 328.649,75.8095 324.649,75.8095 320.5,74.5C 319.873,73.5832 319.539,72.5832 319.5,71.5 Z"/></g>
<g><path style="opacity:1" fill="#a30f0d" d="M 156.5,104.5 C 149.507,112.826 142.174,120.826 134.5,128.5C 133.662,128.842 133.328,129.508 133.5,130.5C 131.929,129.803 130.429,129.47 129,129.5C 127.639,131.028 126.472,132.695 125.5,134.5C 126.48,136.608 126.146,138.608 124.5,140.5C 123.914,140.291 123.414,139.957 123,139.5C 124.235,141.69 124.735,144.023 124.5,146.5C 125.5,146.833 126.5,147.167 127.5,147.5C 144.827,148.163 161.994,148.496 179,148.5C 179.333,147.833 179.667,147.167 180,146.5C 181.25,147.573 182.584,147.573 184,146.5C 185.567,147.856 187.4,148.523 189.5,148.5C 189.5,150.167 189.5,151.833 189.5,153.5C 155.15,154.16 121.15,153.493 87.5,151.5C 87.5,150.167 87.5,148.833 87.5,147.5C 88.9238,145.485 89.5905,143.152 89.5,140.5C 90.9238,138.485 91.5905,136.152 91.5,133.5C 101.134,122.532 111.134,111.865 121.5,101.5C 121.038,103.757 120.038,105.757 118.5,107.5C 120.477,108.188 122.477,107.855 124.5,106.5C 125.912,104.421 127.412,102.421 129,100.5C 129.691,103.266 131.191,103.933 133.5,102.5C 136.77,104.267 139.603,106.6 142,109.5C 143.943,107.285 145.609,107.285 147,109.5C 149.682,106.818 152.849,105.151 156.5,104.5 Z"/></g>
<g><path style="opacity:1" fill="#cb807d" d="M 41.5,116.5 C 41.2785,119.067 40.6118,121.401 39.5,123.5C 39.5,121.833 39.5,120.167 39.5,118.5C 40.1667,117.833 40.8333,117.167 41.5,116.5 Z"/></g>
<g><path style="opacity:1" fill="#b60f0b" d="M 214.5,83.5 C 214.429,86.3113 213.762,88.978 212.5,91.5C 213.901,93.8092 215.735,95.8092 218,97.5C 217.873,101.852 218.373,106.185 219.5,110.5C 221.584,115.82 224.584,120.653 228.5,125C 233.908,126.871 238.908,129.538 243.5,133C 245.134,133.494 246.801,133.66 248.5,133.5C 248.783,134.289 249.283,134.956 250,135.5C 251.751,134.826 253.417,134.493 255,134.5C 256.193,136.605 257.86,138.272 260,139.5C 259.443,141.841 259.61,144.174 260.5,146.5C 270.705,143.365 281.038,140.699 291.5,138.5C 290.167,139.5 288.833,140.5 287.5,141.5C 277.972,144.131 268.305,146.298 258.5,148C 243.316,150.803 229.316,148.136 216.5,140C 212.542,136.579 209.708,132.412 208,127.5C 204.683,111.937 206.85,97.2701 214.5,83.5 Z"/></g>
<g><path style="opacity:1" fill="#c5120e" d="M 330.5,112.5 C 319.611,124.399 306.611,133.066 291.5,138.5C 281.038,140.699 270.705,143.365 260.5,146.5C 259.61,144.174 259.443,141.841 260,139.5C 257.86,138.272 256.193,136.605 255,134.5C 253.417,134.493 251.751,134.826 250,135.5C 249.283,134.956 248.783,134.289 248.5,133.5C 252.182,133.665 255.848,133.499 259.5,133C 263.482,131.33 267.482,130.163 271.5,129.5C 274.199,129.534 276.699,128.867 279,127.5C 280.818,129.645 282.318,129.645 283.5,127.5C 284.5,128.167 285.5,128.833 286.5,129.5C 289.505,126.58 291.338,127.246 292,131.5C 292.691,129.109 293.691,129.109 295,131.5C 296.57,130.386 297.903,129.053 299,127.5C 299.71,128.973 300.876,129.64 302.5,129.5C 303.975,128.175 304.809,126.175 305,123.5C 305.333,124.167 305.667,124.833 306,125.5C 308.172,123.916 309.839,121.916 311,119.5C 312.566,120.061 313.899,119.394 315,117.5C 315.333,118.167 315.667,118.833 316,119.5C 317.316,118.026 318.316,116.359 319,114.5C 319.333,114.833 319.667,115.167 320,115.5C 320.667,114.167 321.667,113.167 323,112.5C 324.101,114.394 325.434,115.061 327,114.5C 327.71,113.027 328.876,112.36 330.5,112.5 Z"/></g>
<g><path style="opacity:1" fill="#ae544e" d="M 38.5,127.5 C 43.611,128.806 48.9443,129.472 54.5,129.5C 64.5074,128.21 74.5074,128.21 84.5,129.5C 84.405,131.786 83.7384,133.786 82.5,135.5C 82.5,133.833 82.5,132.167 82.5,130.5C 67.5,130.5 52.5,130.5 37.5,130.5C 37.2627,129.209 37.596,128.209 38.5,127.5 Z"/></g>
<g><path style="opacity:1" fill="#9b0b0a" d="M 133.5,130.5 C 151.5,130.5 169.5,130.5 187.5,130.5C 188.219,132.764 188.552,135.097 188.5,137.5C 189.12,143.003 190.12,147.669 191.5,151.5C 191.737,152.791 191.404,153.791 190.5,154.5C 155.833,154.5 121.167,154.5 86.5,154.5C 86.2627,153.209 86.596,152.209 87.5,151.5C 121.15,153.493 155.15,154.16 189.5,153.5C 189.5,151.833 189.5,150.167 189.5,148.5C 187.4,148.523 185.567,147.856 184,146.5C 182.584,147.573 181.25,147.573 180,146.5C 179.667,147.167 179.333,147.833 179,148.5C 161.994,148.496 144.827,148.163 127.5,147.5C 126.5,147.167 125.5,146.833 124.5,146.5C 124.735,144.023 124.235,141.69 123,139.5C 123.414,139.957 123.914,140.291 124.5,140.5C 126.146,138.608 126.48,136.608 125.5,134.5C 126.472,132.695 127.639,131.028 129,129.5C 130.429,129.47 131.929,129.803 133.5,130.5 Z"/></g>
<g><path style="opacity:1" fill="#cb8c8d" d="M 134.5,128.5 C 152.167,129.167 169.833,129.833 187.5,130.5C 169.5,130.5 151.5,130.5 133.5,130.5C 133.328,129.508 133.662,128.842 134.5,128.5 Z"/></g>
<g><path style="opacity:1" fill="#9d0f0b" d="M 13.5,99.5 C 13.7839,102.777 13.4505,105.943 12.5,109C 13.3247,110.688 14.3247,110.855 15.5,109.5C 16.4734,111.392 17.1401,113.392 17.5,115.5C 15.2082,117.628 12.8749,120.462 10.5,124C 10.8082,126.846 10.8082,130.012 10.5,133.5C 7.97203,134.816 7.97203,135.983 10.5,137C 9.79351,138.91 8.79351,140.91 7.5,143C 9.67228,145.374 12.0056,147.208 14.5,148.5C 5.21641,149.494 5.54974,150.994 15.5,153C 25.8333,153.667 36.1667,153.667 46.5,153C 44.0742,151.855 41.7409,150.522 39.5,149C 36.2942,148.704 33.1275,148.204 30,147.5C 26.7882,149.91 24.6215,148.91 23.5,144.5C 24.8334,143.38 25.3334,142.047 25,140.5C 23.6152,141.551 22.6152,142.884 22,144.5C 21.393,142.257 20.0597,140.59 18,139.5C 17.7275,140.995 16.5608,142.329 14.5,143.5C 10.919,141.841 10.919,140.675 14.5,140C 14.4066,138.187 14.0733,136.354 13.5,134.5C 15.6495,129.394 18.4828,128.727 22,132.5C 22.3076,131.692 22.8076,131.025 23.5,130.5C 24.6199,131.833 25.9532,132.333 27.5,132C 27.1667,131.667 26.8333,131.333 26.5,131C 28.7769,129.105 31.4435,127.938 34.5,127.5C 35.9852,124.177 37.6519,121.177 39.5,118.5C 39.5,120.167 39.5,121.833 39.5,123.5C 39.7678,125.099 39.4345,126.432 38.5,127.5C 37.596,128.209 37.2627,129.209 37.5,130.5C 52.5,130.5 67.5,130.5 82.5,130.5C 82.5,132.167 82.5,133.833 82.5,135.5C 81.4078,141.433 79.7412,147.1 77.5,152.5C 64.7228,153.815 51.7228,154.481 38.5,154.5C 25.4819,154.499 12.8153,153.832 0.5,152.5C 4.07437,134.538 8.40771,116.871 13.5,99.5 Z"/></g>
<g><path style="opacity:1" fill="#8b3834" d="M 196.5,126.5 C 199.449,129.41 201.116,133.077 201.5,137.5C 198.512,134.519 196.846,130.852 196.5,126.5 Z"/></g>
<g><path style="opacity:1" fill="#7f1c13" d="M 354.5,91.5 C 353.773,93.9538 352.773,96.2872 351.5,98.5C 348.203,100.133 346.536,102.8 346.5,106.5C 334.308,126.361 317.308,140.361 295.5,148.5C 297.15,146.983 298.483,145.15 299.5,143C 298.87,141.69 297.87,140.856 296.5,140.5C 298.428,138.753 300.594,137.087 303,135.5C 307.07,135.096 311.237,135.096 315.5,135.5C 316.966,134.865 318.3,134.031 319.5,133C 318.833,132.667 318.167,132.333 317.5,132C 319.804,131.105 322.138,130.271 324.5,129.5C 323.385,128.402 323.385,127.235 324.5,126C 327.684,122.317 331.017,118.817 334.5,115.5C 334.291,114.914 333.957,114.414 333.5,114C 338.127,111.354 341.794,108.688 344.5,106C 344.167,105 343.833,104 343.5,103C 346.167,102.333 346.167,101.667 343.5,101C 345.667,99.5 347.5,97.6667 349,95.5C 349.667,96.8333 350.333,96.8333 351,95.5C 351.862,93.913 352.529,92.2464 353,90.5C 353.383,91.056 353.883,91.3893 354.5,91.5 Z"/></g>
<g><path style="opacity:1" fill="#b25b5b" d="M 91.5,133.5 C 91.5905,136.152 90.9238,138.485 89.5,140.5C 89.4095,137.848 90.0762,135.515 91.5,133.5 Z"/></g>
<g><path style="opacity:1" fill="#b25956" d="M 89.5,140.5 C 89.5905,143.152 88.9238,145.485 87.5,147.5C 87.4095,144.848 88.0762,142.515 89.5,140.5 Z"/></g>
<g><path style="opacity:1" fill="#b24a44" d="M 188.5,137.5 C 189.558,139.808 190.724,142.142 192,144.5C 192.796,147.039 192.629,149.372 191.5,151.5C 190.12,147.669 189.12,143.003 188.5,137.5 Z"/></g>
<g><path style="opacity:1" fill="#8f3a32" d="M 295.5,148.5 C 292.482,150.4 289.149,151.733 285.5,152.5C 288.013,149.569 291.347,148.235 295.5,148.5 Z"/></g>
<g><path style="opacity:1" fill="#b36569" d="M -0.5,152.5 C -0.166667,152.5 0.166667,152.5 0.5,152.5C 12.8153,153.832 25.4819,154.499 38.5,154.5C 51.7228,154.481 64.7228,153.815 77.5,152.5C 77.5,153.5 77.5,154.5 77.5,155.5C 51.5,155.5 25.5,155.5 -0.5,155.5C -0.5,154.5 -0.5,153.5 -0.5,152.5 Z"/></g>
<g><path style="opacity:1" fill="#b4696a" d="M 87.5,147.5 C 87.5,148.833 87.5,150.167 87.5,151.5C 86.596,152.209 86.2627,153.209 86.5,154.5C 121.167,154.5 155.833,154.5 190.5,154.5C 155.669,155.664 120.669,155.831 85.5,155C 85.1667,154.667 84.8333,154.333 84.5,154C 85.4217,151.706 86.4217,149.539 87.5,147.5 Z"/></g>
<g><path style="opacity:1" fill="#9b4943" d="M 285.5,152.5 C 281.195,154.746 276.529,156.08 271.5,156.5C 273.279,154.656 275.612,153.99 278.5,154.5C 278.351,153.448 278.517,152.448 279,151.5C 281.041,152.423 283.208,152.756 285.5,152.5 Z"/></g>
<g><path style="opacity:1" fill="#787879" d="M 493.5,149.5 C 494.451,150.919 494.784,152.585 494.5,154.5C 502.167,154.5 509.833,154.5 517.5,154.5C 509.684,155.492 501.684,155.826 493.5,155.5C 493.5,153.5 493.5,151.5 493.5,149.5 Z"/></g>
<g><path style="opacity:1" fill="#7d7f80" d="M 542.5,133.5 C 543.491,140.313 543.825,147.313 543.5,154.5C 551.5,154.5 559.5,154.5 567.5,154.5C 559.35,155.493 551.017,155.826 542.5,155.5C 542.5,148.167 542.5,140.833 542.5,133.5 Z"/></g>
<g><path style="opacity:1" fill="#99999b" d="M 431.5,155.5 C 428.983,156.973 426.15,157.64 423,157.5C 420.967,157.494 419.134,157.161 417.5,156.5C 422.203,156.563 426.87,156.229 431.5,155.5 Z"/></g>
<g><path style="opacity:1" fill="#a76363" d="M 225.5,156.5 C 228.152,156.41 230.485,157.076 232.5,158.5C 229.848,158.59 227.515,157.924 225.5,156.5 Z"/></g>
</svg>
